<?xml version="1.0"?><svg width="597.347" height="295.816" xmlns="http://www.w3.org/2000/svg" xmlns:xlink="http://www.w3.org/1999/xlink">
 <title>blue car</title>
 <defs>
  <linearGradient id="linearGradient6250">
   <stop id="stop6252" stop-color="#bcbcbc" offset="0"/>
   <stop id="stop6254" stop-color="#bcbcbc" stop-opacity="0" offset="1"/>
  </linearGradient>
  <linearGradient id="linearGradient5247">
   <stop id="stop5249" stop-color="#ffffff" offset="0"/>
   <stop id="stop5251" stop-color="#ffffff" stop-opacity="0" offset="1"/>
  </linearGradient>
  <linearGradient id="linearGradient5234">
   <stop id="stop5236" stop-color="#000000" offset="0"/>
   <stop id="stop5242" stop-color="#3c3c3c" offset="0.813187"/>
   <stop id="stop5238" stop-color="#000000" offset="1"/>
  </linearGradient>
  <linearGradient id="linearGradient28588">
   <stop id="stop28590" stop-color="#ffffff" offset="0"/>
   <stop id="stop28592" stop-color="#ffffff" stop-opacity="0" offset="1"/>
  </linearGradient>
  <linearGradient id="linearGradient16199">
   <stop id="stop16201" stop-color="#ffffff" stop-opacity="0" offset="0"/>
   <stop id="stop16205" stop-color="#ffffff" stop-opacity="0.636842" offset="0.5"/>
   <stop id="stop16207" stop-color="#ffffff" stop-opacity="0.505263" offset="0.75"/>
   <stop id="stop16203" stop-color="#ffffff" stop-opacity="0" offset="1"/>
  </linearGradient>
  <linearGradient id="linearGradient16120">
   <stop id="stop16122" stop-color="#ffffff" offset="0"/>
   <stop id="stop16124" stop-color="#ffffff" stop-opacity="0" offset="1"/>
  </linearGradient>
  <linearGradient id="linearGradient14136">
   <stop id="stop14138" stop-color="#9eecff" offset="0"/>
   <stop id="stop14140" stop-color="#87efff" offset="1"/>
  </linearGradient>
  <linearGradient id="linearGradient24487" x1="0.291418" y1="-0.18455" x2="0.463904" y2="0.616764" xlink:href="#linearGradient16120"/>
  <linearGradient id="linearGradient24490" x1="0.291418" y1="-0.184549" x2="0.463904" y2="0.616764" xlink:href="#linearGradient16120"/>
  <linearGradient id="linearGradient24498" x1="0.524837" y1="1.13791" x2="0.521815" y2="0.004058" xlink:href="#linearGradient14136"/>
  <linearGradient id="linearGradient24507" x1="0.5" y1="0.253212" x2="0.5" y2="0.596807" xlink:href="#linearGradient16199"/>
  <linearGradient id="linearGradient3252" x1="0.533791" y1="0.441801" x2="0.542015" y2="1.21684" xlink:href="#linearGradient28588"/>
  <radialGradient id="radialGradient8290" gradientUnits="userSpaceOnUse" gradientTransform="matrix(1 0 0 1 1.4858e-008 2.1719)" cx="173.108" cy="532.029" r="61.0672" fx="173.108" fy="532.029" xlink:href="#linearGradient5234"/>
  <linearGradient id="linearGradient8292" x1="0.210002" y1="-0.636205" x2="0.290069" y2="1" xlink:href="#linearGradient5247"/>
  <linearGradient id="linearGradient8294" x1="0.839654" y1="1.03016" x2="0.319436" y2="0.300001" xlink:href="#linearGradient6250"/>
  <linearGradient id="linearGradient8304" x1="0.839654" y1="1.03016" x2="0.319436" y2="0.300001" xlink:href="#linearGradient6250"/>
  <linearGradient id="linearGradient8306" x1="0.839654" y1="1.03016" x2="0.319436" y2="0.300001" xlink:href="#linearGradient6250"/>
  <radialGradient id="radialGradient8308" gradientUnits="userSpaceOnUse" gradientTransform="matrix(1 0 0 1 1.4858e-008 2.1719)" cx="177.85" cy="532.736" r="8.09025" fx="177.85" fy="532.736" xlink:href="#linearGradient16120"/>
  <radialGradient id="radialGradient8338" gradientUnits="userSpaceOnUse" cx="173.108" cy="532.029" r="61.0672" fx="173.108" fy="532.029" xlink:href="#linearGradient5234"/>
  <linearGradient id="linearGradient8340" x1="0.210002" y1="-0.636205" x2="0.290069" y2="1" xlink:href="#linearGradient5247"/>
  <linearGradient id="linearGradient8342" x1="0.839654" y1="1.03016" x2="0.319436" y2="0.300001" xlink:href="#linearGradient6250"/>
  <linearGradient id="linearGradient8352" x1="0.839654" y1="1.03016" x2="0.319436" y2="0.300001" xlink:href="#linearGradient6250"/>
  <linearGradient id="linearGradient8354" x1="0.839654" y1="1.03016" x2="0.319436" y2="0.300001" xlink:href="#linearGradient6250"/>
  <radialGradient id="radialGradient8356" gradientUnits="userSpaceOnUse" cx="177.85" cy="532.736" r="8.09025" fx="177.85" fy="532.736" xlink:href="#linearGradient16120"/>
  <filter id="filter13283" width="1.035602" height="1.974943" y="-0.487471" x="-0.017801">
   <feGaussianBlur id="feGaussianBlur13285" stdDeviation="4.543919"/>
  </filter>
  <linearGradient id="svg_1" x1="0.160346" y1="-0.030163" x2="0.680564" y2="0.699999" xlink:href="#linearGradient6250"/>
  <linearGradient id="svg_2" x1="0.160346" y1="-0.030163" x2="0.680564" y2="0.699999" xlink:href="#linearGradient6250"/>
  <linearGradient id="svg_3" x1="0.160346" y1="-0.030163" x2="0.680564" y2="0.699999" xlink:href="#linearGradient6250"/>
  <linearGradient id="svg_4" x1="0.160346" y1="-0.030163" x2="0.680564" y2="0.699999" xlink:href="#linearGradient6250"/>
  <linearGradient id="svg_5" x1="0.160346" y1="-0.030163" x2="0.680564" y2="0.699999" xlink:href="#linearGradient6250"/>
  <linearGradient id="svg_6" x1="0.160346" y1="-0.030163" x2="0.680564" y2="0.699999" xlink:href="#linearGradient6250"/>
  <linearGradient id="svg_7" x1="0.160346" y1="-0.030163" x2="0.680564" y2="0.699999" xlink:href="#linearGradient6250"/>
  <linearGradient id="svg_8" x1="0.160346" y1="-0.030163" x2="0.680564" y2="0.699999" xlink:href="#linearGradient6250"/>
 </defs>
 <metadata id="metadata7">image/svg+xml</metadata>
 <g>
  <title>Layer 1</title>
  <rect id="rect9337" fill="#666666" fill-rule="evenodd" stroke="#bcbcbc" stroke-dashoffset="0" stroke-miterlimit="4" stroke-width="0.6" transform="matrix(0.991782 0 0 2.82187 20.7317 -862.742)" x="33.7007" y="382.723" width="509.515" height="18.287" rx="57.7698" ry="9.14352" filter="url(#filter13283)"/>
  <path id="path8312" fill="#000000" fill-rule="evenodd" stroke="#000000" stroke-width="1.00016px" d="m430.350006,220.632996l114.090973,-7.106003l3.559998,-8.812988l-13.953979,-34.550003l-104.687012,-5.552002c0.330017,18.673004 0.660004,-21.843002 0.990021,56.020996z"/>
  <path id="path4342" fill="#0000ff" fill-rule="evenodd" stroke-width="1px" d="m263.395996,28.5364c-87.347992,0.262899 -141.953995,54.181297 -185.011993,88.678596c9.409401,-3.654999 19.6576,-5.650993 30.375999,-5.650993c45.853996,0 83.07,36.736992 83.07,82.015999c0,9.891998 -1.778,19.378998 -5.033005,28.162994l215.733002,-0.544998c-3.604004,-9.18399 -5.587006,-19.175003 -5.587006,-29.610992c0,-45.278 37.216003,-82.016006 83.070007,-82.016006c16.229004,0 31.373993,4.609001 44.171021,12.564003c-5.069031,-4.402 -9.976013,-8.167 -14.139008,-10.570999c-17.253021,-9.963005 -54.926025,-12.086601 -63.89801,-13.949501c-8.875,-1.842903 -11.554993,-2.301903 -14.050018,-4.654999c-9.258972,-8.735306 -80.39798,-73.322603 -168.700989,-64.423103z"/>
  <path id="path12136" fill="#0000ff" fill-rule="evenodd" marker-end="none" marker-mid="none" marker-start="none" stroke-dashoffset="0" stroke-miterlimit="4" stroke-width="1px" d="m191.223999,206.009995l208.919006,-0.561996l3.247986,16.313995l-221.908997,0l9.742004,-15.751999z"/>
  <path id="path2371" opacity="0.992308" fill="#ff007f" fill-rule="evenodd" stroke-width="1.90917px" d="m499.476013,118.727997c20.916016,18.653 39.154968,38.854004 54.252014,60.374008c6.336975,-8.031006 7.105957,-24.868011 4.584961,-29.057007c-10.588989,-17.595001 -32.84198,-28.800995 -58.836975,-31.317001z"/>
  <path id="path16188" opacity="0.6" fill="#0000ff" fill-rule="evenodd" stroke-width="1px" d="m200.772003,43.198502c-0.348999,0.119297 -0.699005,0.238697 -1.048004,0.358097c-34.772003,11.973103 -65.600006,33.5275 -93.974998,57.214405c-0.384003,0.613998 -3.837997,3.421997 -5.886101,5.262993c-2.335999,1.266006 -5.101898,2.956001 -8.432701,5.215004c34.038803,3.422997 73.327797,27.014 83.219795,53.603004c3.723007,9.653992 5.228012,19.854996 4.89801,30.000992c80.973999,-0.056992 161.863983,-3.791992 242.813995,-4.935989c3.289001,-23.313004 19.505005,-43.67601 38.239014,-60.562012c5.870972,-5.587997 12.964996,-10.399994 18.123993,-16.408997c1.213989,-1.825996 0.173981,-4.139 -0.989014,-5.496002c0.906006,-0.090996 -0.083984,0.263 -7.716003,-1.376999c-19.583984,-3.952995 -41.049988,-1.396996 -51.917999,-19.8955c-0.876984,-1.4944 11.371002,18.650505 9.680023,18.628502c-65.672028,-0.848 -127.612,-2.056 -184.372009,-2.491997c-0.28801,-0.002007 -1.17601,-50.407104 -1.709,-63.071201c-1.768997,-0.080402 -11.964005,1.517498 -13.145004,1.7188c-0.143997,1.193298 -2.406006,60.8274 -3.259995,60.790398c-33.393005,-1.418999 -66.812012,-0.652 -103.385002,-0.653999c1.343994,-1.057999 2.519997,-2.328903 3.459999,-3.876396c9.651001,-15.878304 46.011993,-40.628502 75.401001,-54.023102z"/>
  <path id="path8310" fill="#000000" fill-rule="evenodd" stroke="#000000" stroke-width="1.00016px" d="m46.503799,205.897003l121.002197,14.845001l6.278,-15.416l-14.268997,-35.970001l-103.3083,-5.138l-9.7029,41.679001z"/>
  <g id="g8277" transform="matrix(0.920555 0 0 0.920853 -0.879261 -44.4963)">
   <path id="path3292" fill="url(#radialGradient8290)" fill-rule="evenodd" marker-end="none" marker-mid="none" marker-start="none" stroke-dashoffset="0" stroke-miterlimit="4" stroke-width="11.4" d="m182.164001,265.498993c0,33.726013 -27.341003,61.067017 -61.067001,61.067017c-33.726601,0 -61.067299,-27.341003 -61.067299,-61.067017c0,-33.72699 27.340698,-61.066986 61.067299,-61.066986c33.725998,0 61.067001,27.339996 61.067001,61.066986z"/>
   <path id="path3294" fill="#999999" fill-rule="evenodd" marker-end="none" marker-mid="none" marker-start="none" stroke-dashoffset="0" stroke-miterlimit="4" stroke-width="11.4" d="m164.326996,264.173004c0,23.691986 -19.205994,42.89801 -42.898994,42.89801c-23.691704,0 -42.898003,-19.206024 -42.898003,-42.89801c0,-23.692001 19.206299,-42.899002 42.898003,-42.899002c23.693001,0 42.898994,19.207001 42.898994,42.899002z"/>
   <path id="path5244" fill="url(#linearGradient8292)" fill-rule="evenodd" marker-end="none" marker-mid="none" marker-start="none" stroke-dashoffset="0" stroke-miterlimit="4" stroke-width="11.4" d="m162.669006,264.105011c-35.794006,-41.178009 -46.059006,10.368988 -82.481506,0c0,-22.765015 18.475899,-41.241013 41.240501,-41.241013c22.764992,0 41.241005,18.475998 41.241005,41.241013z"/>
   <path id="path6262" fill="#080808" fill-rule="evenodd" marker-end="none" marker-mid="none" marker-start="none" stroke="url(#linearGradient8294)" stroke-dashoffset="0" stroke-miterlimit="4" stroke-width="2.32136" d="m102.601997,252.087006c-2.759796,2.151993 -7.1903,1.084 -9.895599,-2.38501c-2.705299,-3.470001 -2.660995,-8.026993 0.0989,-10.179001c2.759903,-2.151993 7.190399,-1.084 9.895699,2.386002c2.705002,3.469009 2.661003,8.026001 -0.098999,10.178009z"/>
   <path id="path6266" fill="#080808" fill-rule="evenodd" marker-end="none" marker-mid="none" marker-start="none" stroke="url(#svg_8)" stroke-dashoffset="0" stroke-miterlimit="4" stroke-width="2.32136" d="m118.963997,242.255997c-3.396996,-0.841995 -5.292999,-4.985992 -4.235001,-9.257004c1.058006,-4.269989 4.669006,-7.049988 8.066002,-6.207993c3.397003,0.841003 5.292999,4.985001 4.235001,9.255997c-1.057999,4.270004 -4.668999,7.050003 -8.066002,6.209z"/>
   <path id="path6270" fill="#080808" fill-rule="evenodd" marker-end="none" marker-mid="none" marker-start="none" stroke="url(#svg_7)" stroke-dashoffset="0" stroke-miterlimit="4" stroke-width="2.32136" d="m136.968002,249.261002c-1.421997,-3.197006 0.68399,-7.238998 4.703995,-9.027008c4.020004,-1.787994 8.432007,-0.644989 9.854004,2.553009c1.421997,3.196991 -0.684006,7.238998 -4.703995,9.026993c-4.020004,1.78801 -8.432007,0.645004 -9.854004,-2.552994z"/>
   <path id="path6274" fill="#080808" fill-rule="evenodd" marker-end="none" marker-mid="none" marker-start="none" stroke="url(#svg_6)" stroke-dashoffset="0" stroke-miterlimit="4" stroke-width="2.32136" d="m142.572998,266.377014c1.471008,-3.175018 5.900009,-4.251007 9.891998,-2.402008c3.992004,1.848999 6.036011,5.921997 4.56601,9.097992c-1.471008,3.175995 -5.900009,4.251007 -9.891998,2.402008c-3.992004,-1.848999 -6.036011,-5.921997 -4.56601,-9.097992z"/>
   <path id="path6278" fill="#080808" fill-rule="evenodd" marker-end="none" marker-mid="none" marker-start="none" stroke="url(#svg_5)" stroke-dashoffset="0" stroke-miterlimit="4" stroke-width="2.32136" d="m132.751007,282.300995c3.389999,-0.868988 7.023987,1.881012 8.115997,6.143005c1.093002,4.261993 -0.770004,8.421997 -4.160004,9.290009c-3.389999,0.868988 -7.024002,-1.881012 -8.115997,-6.143005c-1.093002,-4.261993 0.769989,-8.42099 4.160004,-9.290009z"/>
   <path id="path6282" fill="#080808" fill-rule="evenodd" marker-end="none" marker-mid="none" marker-start="none" stroke="url(#linearGradient8304)" stroke-dashoffset="0" stroke-miterlimit="4" stroke-width="2.32136" d="m112.994003,284.345001c2.672997,2.259003 2.537994,6.815002 -0.303001,10.174988c-2.840004,3.360016 -7.308998,4.253021 -9.982002,1.994019c-2.672997,-2.259003 -2.537003,-6.815002 0.303001,-10.175018c2.839996,-3.359985 7.308998,-4.252991 9.982002,-1.993988z"/>
   <path id="path6288" fill="#080808" fill-rule="evenodd" marker-end="none" marker-mid="none" marker-start="none" stroke="url(#linearGradient8306)" stroke-dashoffset="0" stroke-miterlimit="4" stroke-width="2.32136" d="m99.997299,270.303986c-0.133896,3.497009 -3.806396,6.196014 -8.202896,6.028015c-4.3964,-0.169006 -7.851906,-3.140015 -7.718002,-6.636993c0.133896,-3.497009 3.806396,-6.196014 8.202896,-6.028015c4.3964,0.169006 7.8517,3.140015 7.718002,6.636993z"/>
   <path id="path6329" opacity="0.376569" fill="url(#radialGradient8308)" fill-rule="evenodd" marker-end="none" marker-mid="none" marker-start="none" stroke="#bcbcbc" stroke-dashoffset="0" stroke-miterlimit="4" stroke-width="0.6" d="m129.218994,264.173004c0,4.302002 -3.487991,7.790009 -7.790993,7.790009c-4.302002,0 -7.790001,-3.488007 -7.790001,-7.790009c0,-4.303009 3.487999,-7.790009 7.790001,-7.790009c4.303001,0 7.790993,3.487 7.790993,7.790009z"/>
  </g>
  <path style="vector-effect: non-scaling-stroke; " id="path2378" fill="#0000ff" fill-rule="nonzero" marker-end="none" marker-mid="none" marker-start="none" stroke-dashoffset="0" stroke-miterlimit="4" stroke-width="2.9" d="m109.232002,110.987c-45.854202,0 -81.792002,36.753006 -81.792002,82.031006c0.4867,12.076996 12.984499,11.709 22.886599,15.396988c3.868603,-42.182999 27.492302,-61.190994 63.335403,-60.870987c36.697998,0.319992 63.466995,38.269989 53.862991,74.215988l19.129013,-0.034988c3.591995,-9.171005 5.632996,-18.289001 5.632996,-28.707001c0,-45.278 -37.201004,-82.031006 -83.055,-82.031006l0,0z"/>
  <g id="g8314" transform="matrix(0.920555 0 0 0.920853 373.653 -43.6889)">
   <path id="path8316" fill="url(#radialGradient8338)" fill-rule="evenodd" marker-end="none" marker-mid="none" marker-start="none" stroke-dashoffset="0" stroke-miterlimit="4" stroke-width="11.4" d="m182.164001,265.498993c0,33.726013 -27.341003,61.067017 -61.067001,61.067017c-33.726601,0 -61.067299,-27.341003 -61.067299,-61.067017c0,-33.72699 27.340698,-61.066986 61.067299,-61.066986c33.725998,0 61.067001,27.339996 61.067001,61.066986z"/>
   <path id="path8318" fill="#999999" fill-rule="evenodd" marker-end="none" marker-mid="none" marker-start="none" stroke-dashoffset="0" stroke-miterlimit="4" stroke-width="11.4" d="m164.326996,264.173004c0,23.691986 -19.205994,42.89801 -42.898994,42.89801c-23.691704,0 -42.898003,-19.206024 -42.898003,-42.89801c0,-23.692001 19.206299,-42.899002 42.898003,-42.899002c23.693001,0 42.898994,19.207001 42.898994,42.899002z"/>
   <path id="path8320" fill="url(#linearGradient8340)" fill-rule="evenodd" marker-end="none" marker-mid="none" marker-start="none" stroke-dashoffset="0" stroke-miterlimit="4" stroke-width="11.4" d="m162.669006,264.105011c-35.794006,-41.178009 -46.059006,10.368988 -82.481506,0c0,-22.765015 18.475899,-41.241013 41.240501,-41.241013c22.764992,0 41.241005,18.475998 41.241005,41.241013z"/>
   <path id="path8322" fill="#080808" fill-rule="evenodd" marker-end="none" marker-mid="none" marker-start="none" stroke="url(#linearGradient8342)" stroke-dashoffset="0" stroke-miterlimit="4" stroke-width="2.32136" d="m102.601997,252.087006c-2.759796,2.151993 -7.1903,1.084 -9.895599,-2.38501c-2.705299,-3.470001 -2.660995,-8.026993 0.0989,-10.179001c2.759903,-2.151993 7.190399,-1.084 9.895699,2.386002c2.705002,3.469009 2.661003,8.026001 -0.098999,10.178009z"/>
   <path id="path8324" fill="#080808" fill-rule="evenodd" marker-end="none" marker-mid="none" marker-start="none" stroke="url(#svg_4)" stroke-dashoffset="0" stroke-miterlimit="4" stroke-width="2.32136" d="m118.963997,242.255997c-3.396996,-0.841995 -5.292999,-4.985992 -4.235001,-9.257004c1.058006,-4.269989 4.669006,-7.049988 8.066002,-6.207993c3.397003,0.841003 5.292999,4.985001 4.235001,9.255997c-1.057999,4.270004 -4.668999,7.050003 -8.066002,6.209z"/>
   <path id="path8326" fill="#080808" fill-rule="evenodd" marker-end="none" marker-mid="none" marker-start="none" stroke="url(#svg_3)" stroke-dashoffset="0" stroke-miterlimit="4" stroke-width="2.32136" d="m136.968002,249.261002c-1.421997,-3.197006 0.68399,-7.238998 4.703995,-9.027008c4.020004,-1.787994 8.432007,-0.644989 9.854004,2.553009c1.421997,3.196991 -0.684006,7.238998 -4.703995,9.026993c-4.020004,1.78801 -8.432007,0.645004 -9.854004,-2.552994z"/>
   <path id="path8328" fill="#080808" fill-rule="evenodd" marker-end="none" marker-mid="none" marker-start="none" stroke="url(#svg_2)" stroke-dashoffset="0" stroke-miterlimit="4" stroke-width="2.32136" d="m142.572998,266.377014c1.471008,-3.175018 5.900009,-4.251007 9.891998,-2.402008c3.992004,1.848999 6.036011,5.921997 4.56601,9.097992c-1.471008,3.175995 -5.900009,4.251007 -9.891998,2.402008c-3.992004,-1.848999 -6.036011,-5.921997 -4.56601,-9.097992z"/>
   <path id="path8330" fill="#080808" fill-rule="evenodd" marker-end="none" marker-mid="none" marker-start="none" stroke="url(#svg_1)" stroke-dashoffset="0" stroke-miterlimit="4" stroke-width="2.32136" d="m132.751007,282.300995c3.389999,-0.868988 7.023987,1.881012 8.115997,6.143005c1.093002,4.261993 -0.770004,8.421997 -4.160004,9.290009c-3.389999,0.868988 -7.024002,-1.881012 -8.115997,-6.143005c-1.093002,-4.261993 0.769989,-8.42099 4.160004,-9.290009z"/>
   <path id="path8332" fill="#080808" fill-rule="evenodd" marker-end="none" marker-mid="none" marker-start="none" stroke="url(#linearGradient8352)" stroke-dashoffset="0" stroke-miterlimit="4" stroke-width="2.32136" d="m112.994003,284.345001c2.672997,2.259003 2.537994,6.815002 -0.303001,10.174988c-2.840004,3.360016 -7.308998,4.253021 -9.982002,1.994019c-2.672997,-2.259003 -2.537003,-6.815002 0.303001,-10.175018c2.839996,-3.359985 7.308998,-4.252991 9.982002,-1.993988z"/>
   <path id="path8334" fill="#080808" fill-rule="evenodd" marker-end="none" marker-mid="none" marker-start="none" stroke="url(#linearGradient8354)" stroke-dashoffset="0" stroke-miterlimit="4" stroke-width="2.32136" d="m99.997299,270.303986c-0.133896,3.497009 -3.806396,6.196014 -8.202896,6.028015c-4.3964,-0.169006 -7.851906,-3.140015 -7.718002,-6.636993c0.133896,-3.497009 3.806396,-6.196014 8.202896,-6.028015c4.3964,0.169006 7.8517,3.140015 7.718002,6.636993z"/>
   <path id="path8336" opacity="0.376569" fill="url(#radialGradient8356)" fill-rule="evenodd" marker-end="none" marker-mid="none" marker-start="none" stroke="#bcbcbc" stroke-dashoffset="0" stroke-miterlimit="4" stroke-width="0.6" d="m129.218994,264.173004c0,4.302002 -3.487991,7.790009 -7.790993,7.790009c-4.302002,0 -7.790001,-3.488007 -7.790001,-7.790009c0,-4.303009 3.487999,-7.790009 7.790001,-7.790009c4.303001,0 7.790993,3.487 7.790993,7.790009z"/>
  </g>
  <path id="path3357" fill="#0000ff" fill-rule="nonzero" marker-end="none" marker-mid="none" marker-start="none" stroke-dashoffset="0" stroke-miterlimit="4" stroke-width="2.9" d="m478.908997,107.942001c45.854004,0 55.593018,23.272995 79.875,54.567993c6.369019,8.209 -10.083008,41.453003 -13.674988,50.812012l-3.953003,-0.693008c2.166992,-41.412003 -19.437988,-65.132996 -56.283997,-66.537994c-27.542999,0.106003 -61.494019,20.968002 -54.080017,75.210999l-29.380981,0.509003c-3.59201,-9.359009 -5.557007,-19.524002 -5.557007,-30.156006c0,-46.205994 37.200989,-83.712997 83.054993,-83.712997z"/>
  <path id="path4328" fill="url(#linearGradient24498)" fill-rule="evenodd" stroke="#087900" stroke-miterlimit="4" stroke-width="1.02619" d="m243.231003,39.527901l2.636002,62.477097l176.893982,2.055c-48.140991,-50.344299 -111.826996,-74.313198 -179.529984,-64.532097zm-16.462006,3.316101c-64.867004,15.907997 -96.669998,57.821999 -96.669998,57.821999l94.139008,1.089996l2.530991,-58.911995z"/>
  <path id="path16269" opacity="0.958159" fill="url(#linearGradient3252)" fill-rule="evenodd" stroke-miterlimit="4" stroke-width="2.1" d="m273.108002,43.073799c-7.942017,0.0415 -15.881989,0.542301 -23.766006,1.504501c0.645004,17.150398 1.346008,34.298798 2.106003,51.444496c53.14801,0.610001 106.296997,1.178505 159.446014,1.763901c-37.387024,-34.150597 -86.97702,-55.418598 -137.786011,-54.712898zm-51.522003,7.124401c-29.289993,8.2005 -56.802994,23.3232 -78.748001,44.614201c26.147995,0.145096 52.292007,0.6707 78.438995,0.760796c0.493011,-15.260696 1.545013,-30.501495 1.730011,-45.772697c-0.473999,0.132603 -0.947998,0.265202 -1.421005,0.397701z"/>
  <path id="path4336" fill="#7f0000" fill-rule="evenodd" stroke="#076c00" stroke-miterlimit="4" stroke-width="1.36822" d="m235.498001,39.012501c-1.076996,0 -2.733002,103.658504 0,167.343502"/>
  <path id="path15113" opacity="0.969231" fill="url(#linearGradient24490)" fill-rule="nonzero" marker-end="none" marker-mid="none" marker-start="none" stroke-dashoffset="0" stroke-miterlimit="4" stroke-width="2.9" d="m108.485001,115.357002c-24.948898,-2.737999 -64.1688,15.236 -72.432701,55.443993c39.707703,-71.289291 101.347694,-40.653992 103.164696,-43.954994c-9.145996,-6.445 -19.783997,-10.347 -30.731995,-11.488998z"/>
  <path id="path16128" opacity="0.969231" fill="#0000ff" fill-rule="nonzero" marker-end="none" marker-mid="none" marker-start="none" stroke-dashoffset="0" stroke-miterlimit="4" stroke-width="2.9" d="m479.100006,112.806c-24.950012,-2.737999 -64.170013,15.236008 -72.433014,55.444c39.707001,-71.289497 101.348022,-40.653999 103.164001,-43.956001c-9.145996,-6.444 -19.783997,-10.346001 -30.730988,-11.487999z"/>
  <path id="path8360" opacity="0.154812" fill="#ffffff" fill-rule="evenodd" marker-end="none" marker-mid="none" marker-start="none" stroke-dashoffset="0" stroke-miterlimit="4" stroke-width="1px" d="m396.890015,206.222c-38.053009,1.195999 -76.146027,0.345001 -114.216003,0.761002c-30.111008,0.125 -60.528015,-0.186996 -90.451004,0.645996c-4.772003,4.315002 -0.09201,3.794006 4.47699,3.488007c67.241989,-0.363998 134.483994,-0.018997 201.724991,-0.143005c-0.573975,-1.134003 0.348022,-4.783997 -1.534973,-4.751999z"/>
 </g>
</svg>